<?xml version="1.0" encoding="UTF-8"?>
<svg id="Layer_2" data-name="Layer 2" xmlns="http://www.w3.org/2000/svg" viewBox="0 0 160 50">
  <defs>
    <style>
      .cls-1 {
        fill: #ff4500;
        opacity: 0.5;
      }

      .cls-2 {
        fill: none;
      }

      .cls-3 {
        fill: #fff;
      }
    </style>
  </defs>
  <polygon class="cls-1" points="47.26 0 97.26 50 114.01 50 64.01 0 47.26 0"/>
  <polygon class="cls-1" points="80.76 0 130.76 50 147.51 50 97.51 0 80.76 0"/>
  <polygon class="cls-1" points="160 12.24 160 0 147.76 0 160 12.24"/>
  <polygon class="cls-1" points="13.76 0 63.76 50 80.51 50 30.51 0 13.76 0"/>
  <polygon class="cls-1" points="114.26 0 160 45.74 160 28.99 131.01 0 114.26 0"/>
  <polygon class="cls-1" points="0 50 13.5 50 0 36.5 0 50"/>
  <polygon class="cls-1" points="0 19.74 30.26 50 47.01 50 0 2.99 0 19.74"/>
  <g>
    <polygon class="cls-3" points="132.22 .5 147.56 .5 159.5 12.44 159.5 27.78 132.22 .5"/>
    <path class="cls-2" d="m147.35,1l11.65,11.65v13.92L133.43,1h13.92m.41-1h-16.75l28.99,28.99V12.24l-12.24-12.24h0Z"/>
  </g>
  <g>
    <polygon class="cls-3" points="147.72 49.5 98.72 .5 114.06 .5 159.5 45.94 159.5 49.5 147.72 49.5"/>
    <path class="cls-2" d="m113.85,1l45.15,45.15v2.85h-11.07L99.93,1h13.92m.41-1h-16.75l50,50h12.49v-4.26L114.26,0h0Z"/>
  </g>
  <g>
    <polygon class="cls-3" points="114.22 49.5 65.22 .5 80.55 .5 129.55 49.5 114.22 49.5"/>
    <path class="cls-2" d="m80.35,1l48,48h-13.92L66.42,1h13.92m.41-1h-16.75l50,50h16.75L80.76,0h0Z"/>
  </g>
  <g>
    <polygon class="cls-3" points="80.72 49.5 31.72 .5 47.05 .5 96.05 49.5 80.72 49.5"/>
    <path class="cls-2" d="m46.84,1l48,48h-13.92L32.92,1h13.92m.41-1h-16.75l50,50h16.75L47.26,0h0Z"/>
  </g>
  <g>
    <polygon class="cls-3" points="47.21 49.5 .5 2.79 .5 .5 13.55 .5 62.55 49.5 47.21 49.5"/>
    <path class="cls-2" d="m13.34,1l48,48h-13.92L1,2.58v-1.58h12.34m.41-1H0v2.99l47.01,47.01h16.75L13.76,0h0Z"/>
  </g>
  <g>
    <polygon class="cls-3" points="13.71 49.5 .5 36.29 .5 20.95 29.05 49.5 13.71 49.5"/>
    <path class="cls-2" d="m1,22.16l26.84,26.84h-13.92L1,36.08v-13.92m-1-2.41v16.75l13.5,13.5h16.75L0,19.74h0Z"/>
  </g>
</svg>